<svg width="109" height="117" viewBox="0 0 109 117" fill="none" xmlns="http://www.w3.org/2000/svg">
<path d="M45.4187 4.6125C51.0366 1.4625 57.9866 1.4625 63.6624 4.6125L98.0649 23.9062C103.683 27.0562 107.158 32.9062 107.158 39.2625V77.7375C107.158 84.0375 103.683 89.8875 98.0649 93.0937L63.6624 112.387C58.0445 115.537 51.0945 115.537 45.4187 112.387L11.0162 93.0937C8.24643 91.5341 5.94807 89.294 4.35197 86.5985C2.75588 83.903 1.91825 80.847 1.92324 77.7375V39.2625C1.92324 32.9625 5.39824 27.1125 11.0162 23.9062L22.0203 17.7188" stroke="#2A7BFF" stroke-width="3" stroke-linecap="round" stroke-linejoin="round"/>
<path d="M78.3333 77.0388C78.3333 66.9138 67.9662 58.7013 55.1667 58.7013C42.3671 58.7013 32 66.9138 32 77.0388M55.1782 45.2125C58.7572 45.2125 62.1896 43.8317 64.7204 41.3738C67.2511 38.9159 68.6728 35.5822 68.6728 32.1063C68.6728 28.6303 67.2511 25.2966 64.7204 22.8387C62.1896 20.3808 58.7572 19 55.1782 19C51.5993 19 48.1669 20.3808 45.6361 22.8387C43.1054 25.2966 41.6837 28.6303 41.6837 32.1063C41.6837 35.5822 43.1054 38.9159 45.6361 41.3738C48.1669 43.8317 51.5993 45.2125 55.1782 45.2125Z" stroke="#2A7BFF" stroke-width="3" stroke-linecap="round" stroke-linejoin="round"/>
</svg>
