<svg width="38" height="50" viewBox="0 0 38 50" fill="none" xmlns="http://www.w3.org/2000/svg">
<path d="M9.66663 20.38V23.8333C9.66663 28.99 13.8433 33.1666 19 33.1666C24.1566 33.1666 28.3333 28.99 28.3333 23.8333V11C28.3333 5.84329 24.1566 1.66663 19 1.66663C13.8433 1.66663 9.66663 5.84329 9.66663 11" stroke="#0DC5FF" stroke-width="2" stroke-linecap="round" stroke-linejoin="round"/>
<path d="M1.15466 19.512V23.4786C1.15466 33.3253 9.158 41.3286 19.0047 41.3286C28.8513 41.3286 36.8547 33.3253 36.8547 23.4786V19.512M15.7567 12.0056C17.8567 11.2356 20.1433 11.2356 22.2433 12.0056M17.1333 16.95C18.37 16.6233 19.6533 16.6233 20.89 16.95M19 41.3333V48.3333" stroke="#0DC5FF" stroke-width="2" stroke-linecap="round" stroke-linejoin="round"/>
</svg>
