<svg width="28" height="31" viewBox="0 0 28 31" fill="none" xmlns="http://www.w3.org/2000/svg">
<path d="M19.8297 20.0317C19.8297 17.5567 17.2938 15.5492 14.163 15.5492C11.0322 15.5492 8.49634 17.5567 8.49634 20.0317M14.1658 12.2519C15.0413 12.2519 15.8809 11.9144 16.4999 11.3136C17.1189 10.7127 17.4667 9.89786 17.4667 9.04817C17.4667 8.19848 17.1189 7.3836 16.4999 6.78278C15.8809 6.18196 15.0413 5.84442 14.1658 5.84442C13.2904 5.84442 12.4508 6.18196 11.8318 6.78278C11.2128 7.3836 10.865 8.19848 10.865 9.04817C10.865 9.89786 11.2128 10.7127 11.8318 11.3136C12.4508 11.9144 13.2904 12.2519 14.1658 12.2519Z" stroke="#0DC5FF" stroke-width="2" stroke-linecap="round" stroke-linejoin="round"/>
<path d="M11.7786 2.3275C13.1527 1.5575 14.8527 1.5575 16.2411 2.3275L24.6561 7.04375C26.0302 7.81375 26.8802 9.24375 26.8802 10.7975V20.2025C26.8802 21.7425 26.0302 23.1725 24.6561 23.9562L16.2411 28.6725C14.8669 29.4425 13.1669 29.4425 11.7786 28.6725L3.36358 23.9562C2.68609 23.575 2.1239 23.0274 1.73349 22.3685C1.34308 21.7096 1.13819 20.9626 1.13941 20.2025V10.7975C1.13941 9.2575 1.98941 7.8275 3.36358 7.04375L6.05524 5.53125" stroke="#0DC5FF" stroke-width="2" stroke-linecap="round" stroke-linejoin="round"/>
</svg>
